
<svg version="1.0" xmlns="http://www.w3.org/2000/svg"
 width="1152.000000pt" height="1248.000000pt" viewBox="0 0 1152.000000 1248.000000"
 preserveAspectRatio="xMidYMid meet">
<metadata>
Created by potrace 1.16, written by Peter Selinger 2001-2019
</metadata>
<g transform="translate(0.000000,1248.000000) scale(0.100000,-0.100000)"
fill="#d4af37" stroke="none">
<path d="M2353 10120 c-4 -15 -14 -20 -39 -20 -19 0 -33 -3 -33 -7 4 -23 -3
-33 -21 -33 -11 0 -20 -6 -20 -14 0 -7 -9 -16 -20 -19 -11 -3 -20 -12 -20 -21
0 -9 -8 -16 -20 -16 -13 0 -20 -7 -20 -20 0 -11 -7 -20 -15 -20 -8 0 -15 -7
-15 -15 0 -8 -9 -15 -20 -15 -13 0 -20 -7 -20 -20 0 -13 -7 -20 -20 -20 -13 0
-20 -7 -20 -20 0 -11 -7 -20 -15 -20 -8 0 -15 -7 -15 -16 0 -9 -9 -18 -20 -21
-11 -3 -20 -14 -20 -24 0 -11 -7 -19 -15 -19 -8 0 -17 -14 -21 -35 -4 -25 -11
-35 -25 -35 -12 0 -19 -7 -19 -20 0 -11 -6 -20 -14 -20 -8 0 -17 -15 -20 -35
-4 -21 -13 -35 -21 -35 -8 0 -15 -9 -15 -20 0 -11 -7 -20 -15 -20 -8 0 -14 -3
-13 -7 3 -15 -16 -68 -29 -81 -7 -7 -13 -24 -13 -37 0 -13 -5 -27 -10 -30 -6
-4 -8 -11 -5 -16 4 -5 -1 -9 -9 -9 -12 0 -16 -10 -16 -40 0 -33 -3 -40 -20
-40 -18 0 -20 -7 -20 -55 0 -41 -4 -55 -14 -55 -10 0 -16 -20 -21 -75 -5 -54
-11 -75 -21 -75 -11 0 -14 -18 -15 -75 -1 -41 -3 -79 -4 -85 -1 -5 -3 -21 -4
-35 0 -15 -7 -25 -16 -25 -13 0 -15 -32 -15 -225 l0 -225 -785 0 -785 0 0 -75
0 -75 785 0 785 0 0 -155 c0 -126 3 -153 14 -149 17 6 26 -62 26 -199 0 -72 3
-96 13 -95 9 2 14 -28 21 -109 6 -85 12 -113 22 -113 11 0 14 -18 14 -75 0
-60 -3 -75 -15 -75 -8 0 -15 -7 -15 -15 0 -8 -9 -15 -20 -15 -13 0 -20 -7 -20
-20 0 -13 -7 -20 -20 -20 -13 0 -20 -7 -20 -20 0 -13 -7 -20 -20 -20 -11 0
-20 -7 -20 -15 0 -8 -8 -15 -17 -15 -26 -1 -58 -26 -41 -33 7 -3 -321 -6 -729
-6 l-743 -1 0 -60 0 -60 664 0 c400 0 667 -4 671 -9 3 -5 0 -13 -6 -17 -8 -5
-9 -3 -4 6 5 9 4 11 -3 6 -7 -4 -12 -18 -12 -32 0 -17 -5 -24 -20 -24 -11 0
-20 -7 -20 -15 0 -8 -7 -15 -16 -15 -9 0 -18 -9 -21 -20 -3 -11 -12 -20 -19
-20 -8 0 -14 -9 -14 -20 0 -13 -7 -20 -20 -20 -11 0 -20 -7 -20 -15 0 -8 -7
-15 -16 -15 -9 0 -18 -9 -21 -20 -3 -11 -11 -20 -18 -20 -7 0 -15 -9 -18 -20
-3 -11 -12 -20 -21 -20 -9 0 -16 -8 -16 -20 0 -13 -7 -20 -20 -20 -11 0 -20
-6 -20 -14 0 -8 -9 -18 -20 -21 -11 -4 -18 -11 -14 -16 3 -6 -3 -13 -15 -16
-12 -3 -21 -13 -21 -24 0 -12 -7 -19 -20 -19 -13 0 -20 -7 -20 -20 0 -11 -6
-20 -14 -20 -8 0 -17 -13 -21 -30 -4 -16 -11 -30 -16 -30 -6 0 -7 5 -4 10 3 6
2 10 -4 10 -6 0 -13 -16 -17 -35 -3 -20 -12 -35 -20 -35 -8 0 -14 -6 -14 -14
0 -7 -9 -16 -20 -19 -12 -3 -20 -14 -20 -26 0 -13 -5 -19 -14 -15 -9 4 -16 -6
-20 -30 -4 -22 -13 -36 -21 -36 -8 0 -15 -9 -15 -20 0 -13 -7 -20 -20 -20 -13
0 -20 -7 -20 -20 0 -11 -7 -23 -15 -26 -8 -3 -17 -21 -21 -40 -3 -19 -12 -34
-20 -34 -7 0 -16 -16 -20 -35 -3 -19 -12 -35 -19 -35 -7 0 -16 -16 -19 -35 -4
-19 -12 -34 -19 -32 -7 1 -13 -10 -15 -25 -2 -16 -10 -28 -17 -28 -8 0 -17
-15 -21 -35 l-6 -35 -224 0 -224 0 0 -70 0 -70 159 0 c174 0 221 -6 221 -26 0
-8 -6 -14 -14 -14 -13 0 -26 -41 -26 -86 0 -14 -6 -24 -14 -24 -10 0 -16 -21
-21 -75 -4 -51 -11 -75 -20 -75 -9 0 -14 -33 -17 -126 -4 -93 -9 -128 -19
-135 -11 -6 -15 -48 -17 -190 -4 -179 1 -235 17 -225 11 7 19 -37 17 -99 0
-32 -6 -50 -13 -51 -7 -1 -67 -2 -133 -3 l-120 -1 0 -70 0 -70 149 0 149 0 6
-35 c4 -21 13 -35 21 -35 11 0 15 -12 15 -40 0 -33 3 -40 20 -40 17 0 20 -7
20 -40 0 -28 4 -40 15 -40 8 0 17 -14 21 -35 3 -20 12 -35 20 -35 9 0 14 -12
14 -35 0 -28 4 -35 20 -35 16 0 20 -7 20 -35 0 -28 4 -35 20 -35 13 0 20 -7
20 -20 0 -11 7 -20 15 -20 8 0 15 -9 15 -20 0 -13 7 -20 20 -20 13 0 20 -7 20
-19 0 -10 8 -25 17 -32 14 -12 16 -12 8 0 -5 10 -4 12 3 7 7 -4 12 -20 12 -37
0 -22 5 -29 20 -29 13 0 20 -7 20 -20 0 -13 7 -20 20 -20 11 0 20 -6 20 -14 0
-8 15 -18 32 -22 18 -4 27 -9 21 -11 -22 -8 -14 -21 17 -28 17 -4 30 -13 30
-21 0 -8 9 -14 20 -14 13 0 20 -7 20 -20 0 -13 7 -20 20 -20 11 0 20 -6 20
-14 0 -8 15 -17 35 -20 21 -4 35 -13 35 -21 0 -8 9 -15 20 -15 13 0 20 -7 20
-20 0 -16 7 -20 35 -20 28 0 35 -4 35 -20 0 -16 7 -20 38 -21 20 0 31 -3 25
-6 -7 -2 -13 -9 -13 -15 0 -6 7 -8 15 -4 8 3 15 1 15 -4 0 -6 9 -10 20 -10 11
0 20 -7 20 -15 0 -9 9 -15 24 -15 45 0 86 -13 86 -26 0 -9 12 -14 35 -14 23 0
35 -5 35 -14 0 -13 41 -26 86 -26 15 0 24 -6 24 -15 0 -13 -89 -15 -745 -15
l-745 0 0 -75 0 -75 1230 0 1230 0 0 -64 c0 -82 9 -126 26 -126 11 0 14 -23
14 -110 0 -87 3 -110 14 -110 19 0 26 -45 26 -161 0 -76 3 -99 13 -99 18 0 30
-292 21 -473 -6 -103 -10 -127 -23 -130 -13 -4 -13 -5 2 -6 10 0 15 -6 12 -11
-4 -6 -11 -8 -16 -5 -5 4 -9 -9 -9 -28 0 -59 -11 -96 -26 -90 -11 4 -14 -5
-14 -36 0 -30 -4 -41 -15 -41 -8 0 -15 -7 -15 -16 0 -9 -9 -18 -19 -21 -12 -3
-21 -17 -26 -39 -3 -20 -12 -34 -20 -34 -8 0 -15 -9 -15 -20 0 -13 -7 -20 -20
-20 -11 0 -20 -7 -20 -15 0 -8 -14 -17 -35 -21 -20 -3 -35 -12 -35 -20 0 -8
-9 -14 -20 -14 -13 0 -20 -7 -20 -20 0 -17 -7 -20 -38 -20 -24 0 -46 -7 -60
-20 -15 -15 -35 -20 -72 -20 -36 0 -50 -4 -50 -14 0 -19 -46 -26 -184 -26
-152 0 -226 9 -226 26 0 7 -14 14 -32 16 -21 2 -33 8 -33 18 0 11 14 16 53 18
35 2 52 7 52 16 0 15 30 26 69 26 16 0 21 4 17 15 -4 11 2 15 24 15 23 0 30 4
30 20 0 13 7 20 19 20 32 0 55 12 41 20 -8 5 -1 10 19 15 21 4 31 13 31 25 0
10 9 20 20 23 15 4 20 14 20 36 0 24 4 31 20 31 16 0 20 7 20 34 0 25 5 35 20
39 17 4 20 14 20 62 0 47 3 56 15 51 13 -5 15 13 15 124 0 116 -8 156 -23 118
-3 -7 -6 7 -6 32 -2 60 -10 90 -27 90 -8 0 -14 10 -14 25 0 15 -6 25 -15 25
-8 0 -17 14 -21 35 -4 25 -11 35 -25 35 -11 0 -19 6 -19 14 0 7 -9 16 -20 19
-11 3 -20 12 -20 21 0 11 -9 16 -30 16 -23 0 -30 4 -30 20 0 17 -7 20 -40 20
-33 0 -40 3 -40 20 0 18 -7 20 -75 20 -60 0 -75 3 -75 15 0 12 -17 15 -95 15
-78 0 -95 -3 -95 -15 0 -11 -12 -15 -47 -15 -62 0 -93 -9 -93 -26 0 -10 -12
-14 -39 -14 -31 0 -38 -4 -37 -17 0 -12 -7 -19 -21 -21 -13 -2 -23 -9 -23 -17
0 -7 -10 -15 -21 -18 -15 -4 -20 -11 -16 -21 5 -11 0 -16 -13 -16 -13 0 -20
-7 -20 -20 0 -13 -7 -20 -20 -20 -13 0 -20 -7 -20 -20 0 -11 -7 -20 -15 -20
-8 0 -17 -14 -21 -35 -3 -20 -12 -35 -20 -35 -9 0 -14 -12 -14 -36 0 -27 -5
-37 -20 -41 -18 -5 -20 -14 -20 -74 0 -55 -3 -69 -15 -69 -12 0 -15 -17 -15
-95 0 -78 3 -95 15 -95 12 0 15 -15 15 -74 0 -65 2 -74 20 -79 15 -4 20 -14
20 -36 0 -20 5 -31 14 -31 8 0 17 -15 20 -36 4 -19 14 -38 22 -41 7 -3 14 -11
14 -19 0 -8 9 -14 20 -14 13 0 20 -7 20 -20 0 -13 7 -20 20 -20 13 0 20 -7 20
-20 0 -11 6 -20 14 -20 7 0 16 -9 19 -20 3 -12 14 -20 27 -20 12 0 18 -5 15
-10 -6 -10 9 -19 41 -24 9 -1 22 -10 29 -19 7 -10 26 -17 44 -17 24 0 31 -4
31 -20 0 -17 7 -20 40 -20 27 0 40 -4 40 -14 0 -8 19 -17 53 -22 32 -6 51 -14
49 -22 -1 -8 17 -12 60 -12 82 0 169 -11 163 -20 -13 -21 144 -19 171 2 7 5
64 11 128 15 87 5 116 9 116 20 0 7 11 13 24 13 45 0 86 13 86 26 0 9 12 14
33 14 47 0 77 10 77 26 0 9 11 14 29 14 17 0 33 5 37 12 4 7 3 8 -4 4 -7 -4
-12 -3 -12 3 0 5 14 12 30 16 17 4 30 13 30 21 0 8 9 14 20 14 13 0 20 7 20
20 0 13 7 20 20 20 13 0 20 7 20 20 0 13 7 20 20 20 13 0 20 7 20 20 0 11 7
20 15 20 8 0 15 6 15 14 0 8 9 18 20 21 15 5 20 15 20 41 0 23 5 34 15 34 10
0 17 14 21 40 4 24 12 40 20 40 8 0 14 10 14 24 0 43 12 86 25 86 9 0 14 29
17 106 3 79 7 107 18 114 12 7 16 45 18 193 3 167 2 186 -15 202 -15 16 -18
39 -21 171 -3 118 -7 152 -16 148 -14 -5 -26 81 -26 189 0 44 -3 57 -15 57
-12 0 -15 15 -16 73 -1 82 -11 123 -27 119 -22 -4 -12 26 11 32 12 3 2008 6
4435 6 l4412 0 0 75 0 75 -4435 0 c-3778 0 -4435 2 -4435 14 0 8 15 17 35 20
21 4 35 13 35 21 0 11 12 15 39 15 30 0 40 4 44 20 4 15 14 20 36 20 21 0 31
5 31 15 0 8 9 15 20 15 11 0 28 9 37 20 10 11 25 20 35 20 11 0 18 8 18 20 0
13 7 20 20 20 11 0 20 7 20 15 0 8 9 15 20 15 13 0 20 7 20 20 0 13 7 20 20
20 13 0 20 7 20 20 0 11 7 20 15 20 8 0 15 9 15 20 0 13 7 20 20 20 11 0 20 7
20 15 0 8 7 15 16 15 9 0 18 9 21 20 3 11 11 20 18 20 7 0 16 16 19 35 4 21
13 35 21 35 8 0 15 9 15 20 0 13 7 20 20 20 13 0 20 7 20 20 0 11 6 20 14 20
9 0 17 15 21 40 4 25 12 40 21 40 9 0 14 12 14 35 0 28 4 35 20 35 18 0 20 7
20 55 0 40 4 55 14 55 15 0 26 43 26 106 0 32 4 44 15 44 11 0 15 11 15 38 0
20 3 54 6 74 l7 38 4003 0 4004 0 0 70 0 70 -1567 0 c-863 0 -1578 3 -1591 6
-25 7 -27 38 -2 40 44 3 50 5 50 19 0 8 9 15 20 15 13 0 20 7 20 20 0 13 7 20
20 20 13 0 20 7 20 20 0 13 7 20 20 20 16 0 20 7 20 35 0 28 4 35 20 35 13 0
20 7 20 20 0 11 7 20 15 20 10 0 15 10 15 33 0 47 10 77 26 77 11 0 14 35 14
191 0 124 -3 188 -10 184 -12 -8 -30 36 -30 76 0 18 -5 29 -14 29 -8 0 -17 15
-20 35 -4 21 -13 35 -21 35 -8 0 -15 8 -15 19 0 10 -9 21 -20 24 -11 3 -20 12
-20 20 0 8 -9 17 -20 20 -11 3 -20 12 -20 21 0 9 -8 16 -20 16 -11 0 -20 7
-20 15 0 8 -14 17 -35 21 -41 7 -45 21 -9 34 16 6 597 10 1590 10 l1564 0 0
70 0 70 -1567 0 c-863 0 -1578 3 -1590 6 -13 4 -23 12 -23 19 0 8 10 15 23 17
12 2 21 9 19 16 -1 8 2 11 7 8 5 -4 12 -2 16 4 3 5 15 10 26 10 11 0 19 7 19
16 0 9 9 18 20 21 11 3 20 12 20 20 0 8 9 17 20 20 14 4 20 14 20 33 0 19 6
29 20 33 12 3 20 14 20 26 0 12 6 21 14 21 9 0 15 16 19 47 3 27 11 50 21 55
14 8 16 34 16 193 0 151 -3 185 -14 185 -16 0 -26 30 -26 78 0 20 -5 32 -14
32 -8 0 -17 15 -20 35 -4 21 -13 35 -21 35 -8 0 -15 9 -15 20 0 13 -7 20 -20
20 -13 0 -20 7 -20 20 0 13 -7 20 -20 20 -11 0 -20 6 -20 14 0 7 -9 16 -20 19
-11 3 -20 12 -20 21 0 11 -9 16 -31 16 -22 0 -32 5 -36 20 -3 11 -12 20 -19
20 -8 0 -14 7 -14 15 0 13 185 15 1605 15 l1605 0 0 60 0 60 -1605 0 c-1420 0
-1605 2 -1605 15 0 8 7 15 15 15 8 0 15 9 15 20 0 14 7 20 21 20 13 0 23 8 26
21 4 16 8 17 14 7 7 -10 9 -10 9 0 0 6 9 12 20 12 13 0 20 7 20 20 0 13 7 20
20 20 13 0 20 7 20 20 0 13 7 20 20 20 15 0 20 7 20 29 0 20 6 30 20 34 12 3
20 14 20 26 0 12 6 21 15 21 10 0 15 10 15 33 0 47 10 77 26 77 11 0 14 34 14
185 0 151 -3 185 -14 185 -16 0 -26 30 -26 78 0 19 -5 32 -13 32 -7 0 -17 15
-23 33 -5 17 -15 31 -22 30 -7 -2 -12 7 -12 22 0 18 -5 25 -20 25 -13 0 -20 7
-20 20 0 13 -7 20 -20 20 -13 0 -20 7 -20 20 0 13 -7 20 -20 20 -11 0 -19 5
-17 11 1 6 -13 17 -32 23 -101 35 -79 36 1548 36 l1591 0 0 75 0 75 -4305 0
-4305 0 0 30 c0 19 5 30 14 30 21 0 27 76 25 307 -2 218 -7 274 -24 273 -6 0
-11 56 -13 145 -2 114 -5 145 -16 145 -17 0 -26 44 -26 126 0 48 -4 64 -14 64
-10 0 -16 21 -21 76 -5 59 -10 74 -21 70 -11 -4 -14 7 -14 54 0 53 -2 60 -20
60 -18 0 -20 7 -20 55 0 42 -4 55 -15 55 -10 0 -17 14 -21 40 -4 24 -12 40
-20 40 -8 0 -14 9 -14 19 0 30 -11 51 -26 51 -9 0 -14 12 -14 35 0 28 -4 35
-20 35 -13 0 -20 7 -20 20 0 13 -7 20 -20 20 -13 0 -20 7 -20 20 0 19 -7 20
-106 20 -97 0 -106 -2 -111 -20z m150 -711 c3 -12 10 -18 17 -14 7 4 14 -2 17
-14 3 -12 11 -21 18 -21 8 0 16 -17 20 -40 4 -25 12 -40 21 -40 8 0 14 -10 14
-24 0 -45 13 -86 26 -86 11 0 14 -40 14 -220 0 -196 -2 -220 -17 -229 -13 -7
-18 -26 -21 -83 -2 -43 -9 -77 -17 -83 -7 -6 -16 -29 -20 -53 -4 -26 -12 -42
-21 -42 -10 0 -14 -14 -14 -55 l0 -55 -335 0 -335 0 0 110 c0 87 3 110 14 110
10 0 16 21 21 75 5 55 11 75 21 75 10 0 14 13 15 43 1 23 1 46 0 50 -1 5 8 11
19 14 17 5 20 13 20 58 0 44 3 54 20 58 15 4 20 14 20 36 0 31 14 42 23 19 3
-7 6 4 6 25 1 30 5 37 21 37 16 0 20 7 20 35 0 28 4 35 20 35 13 0 20 7 20 20
0 11 7 20 15 20 8 0 15 9 15 20 0 13 7 20 19 20 10 0 21 9 24 20 3 11 12 20
21 20 9 0 16 8 16 20 0 13 5 18 15 14 10 -4 15 0 15 11 0 9 9 19 19 22 11 3
21 13 24 24 3 11 14 19 26 19 14 0 19 5 15 15 -5 11 2 15 27 15 49 0 79 10 79
26 0 22 37 16 43 -7z m-73 -1221 c0 -29 -13 -58 -25 -58 -7 0 -16 -16 -19 -35
-4 -21 -13 -35 -21 -35 -8 0 -15 -9 -15 -20 0 -11 -7 -20 -15 -20 -8 0 -15 -9
-15 -19 0 -11 -9 -23 -20 -26 -14 -4 -20 -15 -20 -36 0 -22 -5 -29 -20 -29
-13 0 -20 -7 -20 -20 0 -11 -7 -20 -15 -20 -8 0 -17 -14 -21 -35 -4 -21 -12
-35 -21 -35 -8 0 -17 -9 -20 -20 -3 -11 -12 -20 -19 -20 -8 0 -14 -9 -14 -20
0 -13 -7 -20 -20 -20 -13 0 -20 -7 -20 -19 0 -11 -9 -21 -21 -24 -12 -3 -18
-10 -14 -17 4 -7 -2 -14 -14 -17 -14 -3 -23 -16 -27 -39 -3 -19 -12 -34 -20
-34 -8 0 -14 -9 -14 -20 0 -13 -5 -18 -16 -13 -10 4 -17 -1 -21 -16 -3 -11
-11 -21 -18 -21 -15 0 -25 31 -25 78 0 22 -5 32 -15 32 -13 0 -15 20 -15 124
0 137 -8 218 -21 210 -5 -3 -9 16 -9 43 0 26 -3 85 -7 131 l-6 82 302 0 c234
0 301 -3 301 -12z m4610 -2 c0 -8 -9 -18 -20 -21 -11 -3 -20 -12 -20 -20 0 -7
-11 -16 -25 -19 -17 -4 -23 -11 -18 -19 4 -8 1 -7 -10 2 -15 12 -17 11 -18
-10 -1 -13 -1 -27 0 -31 0 -5 -8 -8 -19 -8 -13 0 -20 -7 -20 -20 0 -12 -7 -20
-16 -20 -9 0 -18 -9 -21 -20 -3 -11 -12 -20 -19 -20 -9 0 -14 -12 -14 -35 0
-28 -4 -35 -20 -35 -18 0 -20 -7 -20 -60 0 -44 -4 -60 -14 -60 -20 0 -26 -32
-26 -145 0 -113 6 -145 26 -145 10 0 14 -16 14 -60 0 -33 3 -59 8 -59 25 4 32
-4 32 -36 0 -24 5 -35 15 -35 8 0 15 -9 15 -20 0 -13 7 -20 20 -20 13 0 20 -7
20 -20 0 -13 7 -20 20 -20 14 0 20 -7 20 -21 0 -12 4 -17 11 -14 6 4 13 -2 16
-14 3 -12 13 -21 23 -21 10 0 20 -9 23 -20 3 -11 12 -20 21 -20 9 0 16 -6 16
-14 0 -7 9 -16 20 -19 11 -3 20 -12 20 -21 0 -15 -206 -16 -2345 -16 l-2345 0
0 34 c0 25 5 35 20 39 11 3 20 12 20 21 0 9 7 16 15 16 10 0 15 10 15 31 0 22
5 32 20 36 15 4 20 14 20 40 0 26 5 36 20 40 11 3 20 14 20 24 0 11 6 19 14
19 8 0 17 15 20 35 4 21 13 35 21 35 10 0 15 11 15 34 0 25 5 35 20 39 15 4
20 14 20 41 0 25 5 36 15 36 8 0 17 14 21 35 3 20 12 35 20 35 10 0 14 13 14
40 0 33 3 40 20 40 17 0 20 7 20 39 0 49 8 71 26 71 10 0 14 12 14 40 0 27 4
40 14 40 9 0 16 19 20 60 5 46 10 58 21 53 12 -4 15 7 15 60 0 76 6 98 26 90
8 -3 14 1 14 11 0 15 175 16 2065 16 1786 0 2065 -2 2065 -14z m768 -22 c31
-4 52 -12 52 -19 0 -7 9 -15 20 -18 11 -3 20 -12 20 -21 0 -9 6 -16 14 -16 8
0 17 -15 20 -35 4 -21 13 -35 21 -35 11 0 15 -11 15 -37 0 -20 3 -33 7 -30 14
14 33 -17 33 -54 0 -27 4 -39 14 -39 10 0 16 -20 21 -70 5 -50 11 -70 21 -70
10 0 14 -13 14 -44 0 -63 11 -106 26 -106 11 0 14 -28 14 -144 0 -135 -1 -144
-20 -149 -15 -4 -20 -14 -20 -40 0 -32 -3 -35 -35 -41 -21 -4 -35 -13 -35 -21
0 -11 -12 -15 -40 -15 -27 0 -40 -4 -40 -14 0 -16 -70 -26 -191 -26 -108 0
-149 7 -142 26 4 11 -5 14 -36 14 -34 0 -41 3 -41 20 0 11 -7 20 -15 20 -8 0
-15 7 -15 16 0 9 -9 18 -20 21 -15 4 -20 14 -20 39 0 26 -4 34 -18 34 -15 0
-19 9 -20 42 -1 23 -7 47 -13 53 -9 7 -10 6 -4 -4 5 -9 4 -12 -3 -7 -6 3 -14
35 -17 71 -5 43 -12 65 -20 65 -9 0 -15 21 -19 63 -7 85 -7 87 -23 87 -10 0
-13 19 -13 75 0 60 -3 75 -15 75 -12 0 -15 17 -15 90 0 73 3 90 15 90 9 0 15
9 15 25 0 14 4 25 10 25 5 0 7 7 4 15 -6 14 17 21 49 16 4 0 7 8 7 19 0 17 7
20 40 20 28 0 40 4 40 14 0 10 14 16 43 19 75 6 261 7 315 1z m-728 -1249 c0
-8 -9 -15 -20 -15 -13 0 -20 -7 -20 -20 0 -13 -7 -20 -20 -20 -11 0 -20 -6
-20 -14 0 -8 -11 -17 -25 -20 -14 -4 -23 -10 -20 -15 2 -5 -2 -11 -10 -15 -8
-3 -15 -12 -15 -21 0 -8 -7 -15 -16 -15 -9 0 -18 -9 -21 -19 -3 -11 -13 -21
-24 -24 -11 -3 -19 -14 -19 -27 0 -16 -4 -20 -15 -16 -12 4 -15 -3 -15 -30 0
-27 -5 -37 -20 -41 -17 -5 -20 -14 -20 -59 0 -40 -4 -54 -14 -54 -21 0 -26
-23 -26 -135 0 -120 7 -165 26 -165 10 0 14 -15 14 -55 0 -48 2 -55 20 -55 16
0 20 -7 20 -35 0 -24 5 -35 15 -35 8 0 15 -9 15 -20 0 -13 7 -20 20 -20 13 0
20 -7 20 -20 0 -13 7 -20 20 -20 13 0 20 -7 20 -20 0 -11 7 -20 15 -20 8 0 15
-7 15 -15 0 -8 9 -15 20 -15 13 0 20 -7 20 -20 0 -13 7 -20 20 -20 13 0 20 -7
20 -20 0 -20 -5 -20 -2421 -18 l-2420 3 -14 25 c-8 14 -17 64 -20 113 -5 65
-10 87 -21 87 -20 0 -17 20 4 21 16 1 16 2 0 6 -16 4 -18 17 -18 99 0 73 -3
94 -14 94 -20 0 -26 32 -26 138 0 71 -3 92 -14 92 -15 0 -26 68 -26 158 0 46
3 55 20 59 11 3 20 12 20 20 0 8 9 17 19 20 11 3 21 15 23 27 2 11 9 20 16 19
6 -2 12 0 11 5 -3 18 15 52 27 52 8 0 14 9 14 20 0 13 7 20 20 20 13 0 20 7
20 20 0 13 7 20 20 20 12 0 20 7 20 18 0 16 120 17 2400 14 2123 -2 2400 -4
2400 -17z m698 -52 c71 -5 82 -8 82 -24 0 -12 7 -19 20 -19 11 0 20 -7 20 -15
0 -8 6 -15 14 -15 8 0 17 -15 20 -35 4 -21 13 -35 21 -35 11 0 15 -12 15 -40
0 -33 3 -40 20 -40 17 0 20 -7 20 -40 0 -28 4 -40 14 -40 10 0 16 -20 21 -70
5 -50 11 -70 21 -70 10 0 14 -13 14 -44 0 -63 11 -106 26 -106 11 0 14 -27 14
-134 0 -142 -4 -166 -26 -166 -9 0 -14 -12 -14 -35 0 -31 -3 -35 -35 -41 -19
-3 -35 -12 -35 -19 0 -8 -17 -16 -40 -20 -25 -4 -40 -12 -40 -21 0 -11 -30
-14 -165 -14 -135 0 -165 3 -165 14 0 9 -15 17 -40 21 -25 4 -40 12 -40 21 0
8 -7 14 -15 14 -8 0 -15 9 -15 20 0 13 -7 20 -20 20 -17 0 -20 7 -20 39 0 30
-4 40 -20 44 -16 4 -20 14 -20 46 0 29 -4 41 -14 41 -10 0 -16 19 -21 65 -5
45 -12 65 -21 65 -10 0 -14 14 -14 50 0 49 -16 100 -32 100 -4 0 -8 34 -8 75
0 60 -3 75 -15 75 -12 0 -15 17 -15 90 0 73 3 90 15 90 9 0 15 9 15 24 0 29
24 56 51 56 10 0 19 6 19 14 0 9 15 17 40 21 24 4 40 12 40 20 0 14 20 16 195
23 28 1 87 -1 133 -5z m-5947 -485 c0 -33 16 -82 19 -63 5 26 18 -58 19 -122
1 -55 4 -73 15 -73 11 0 16 -26 21 -110 5 -84 10 -110 21 -110 10 0 14 -15 14
-60 l0 -60 -347 0 c-192 0 -358 3 -370 6 -28 8 -30 34 -3 34 13 0 20 7 20 20
0 11 7 20 15 20 8 0 15 7 15 15 0 8 9 15 20 15 13 0 20 7 20 20 0 13 7 20 20
20 13 0 20 7 20 20 0 11 7 20 15 20 8 0 15 7 15 16 0 9 9 18 20 21 11 3 20 12
20 19 0 8 7 14 16 14 9 0 18 9 21 19 3 11 13 21 24 24 10 3 19 12 19 21 0 9 7
16 15 16 8 0 15 7 15 16 0 9 9 18 20 21 11 3 20 12 20 19 0 8 9 14 20 14 13 0
20 7 20 20 0 13 7 20 20 20 13 0 20 7 20 20 0 11 7 20 15 20 8 0 15 7 15 15 0
8 9 15 20 15 13 0 20 7 20 20 0 13 7 20 20 20 13 0 20 7 20 20 0 13 7 20 20
20 11 0 20 7 20 15 0 8 7 15 15 15 10 0 15 -11 16 -32z m-73 -760 c2 -13 -3
-18 -17 -18 -14 0 -21 -6 -21 -20 0 -16 -7 -20 -34 -20 -25 0 -35 -5 -39 -20
-3 -11 -12 -20 -21 -20 -9 0 -16 -7 -16 -15 0 -8 -9 -15 -20 -15 -13 0 -20 -7
-20 -20 0 -13 -7 -20 -20 -20 -13 0 -20 -7 -20 -20 0 -11 -7 -20 -15 -20 -8 0
-15 -7 -15 -16 0 -9 -9 -18 -20 -21 -11 -3 -20 -14 -20 -24 0 -11 -7 -19 -15
-19 -8 0 -17 -14 -21 -35 -4 -25 -11 -35 -25 -35 -17 0 -26 -27 -20 -62 0 -5
-6 -8 -14 -8 -8 0 -15 -9 -15 -19 0 -12 -9 -23 -22 -27 -22 -7 -22 -7 -3 -15
17 -6 17 -8 3 -8 -14 -1 -18 -10 -18 -41 0 -33 -3 -40 -20 -40 -17 0 -20 -7
-20 -39 0 -22 -5 -41 -11 -43 -13 -4 -28 -71 -29 -130 0 -28 -5 -48 -11 -48
-6 0 -8 7 -4 18 4 11 3 14 -4 7 -6 -6 -12 -72 -13 -150 l-3 -140 -218 -5
c-119 -3 -217 -2 -217 3 0 4 -9 7 -20 7 -19 0 -20 7 -20 99 0 90 10 132 23 99
3 -7 6 44 6 115 1 101 4 127 15 127 16 0 26 30 26 83 0 25 5 37 14 37 13 0 26
41 26 86 0 15 6 24 15 24 10 0 15 10 15 34 0 19 5 38 10 41 6 4 8 10 5 15 -3
5 0 12 6 16 8 4 9 3 5 -4 -4 -7 -2 -12 3 -12 6 0 11 20 11 45 0 38 3 45 19 45
14 0 21 8 23 28 2 15 8 26 15 25 7 -2 15 13 19 32 3 20 12 35 20 35 9 0 14 11
14 31 0 22 5 32 20 36 11 3 20 14 20 24 0 11 6 19 14 19 7 0 16 9 19 20 5 20
12 20 338 18 309 -3 334 -4 337 -20z m5282 2 c0 -13 -7 -20 -20 -20 -13 0 -20
-7 -20 -20 0 -15 -7 -20 -25 -20 -19 0 -23 -4 -18 -17 5 -12 2 -15 -10 -10
-13 5 -17 1 -17 -18 0 -18 -5 -25 -20 -25 -13 0 -20 -7 -20 -20 0 -13 -7 -20
-20 -20 -13 0 -20 -7 -20 -20 0 -11 -7 -20 -15 -20 -10 0 -15 -11 -15 -35 0
-28 -4 -35 -20 -35 -18 0 -20 -7 -20 -60 0 -46 -3 -58 -14 -54 -20 8 -26 -26
-26 -146 0 -117 6 -150 26 -150 10 0 14 -15 14 -54 0 -45 3 -54 20 -59 15 -4
20 -14 20 -41 0 -24 5 -36 14 -36 7 0 16 -9 19 -20 3 -11 12 -20 21 -20 9 0
16 -7 16 -15 0 -8 7 -15 16 -15 9 0 18 -9 21 -20 3 -11 11 -20 18 -20 7 0 15
-9 18 -20 3 -11 12 -20 21 -20 9 0 16 -7 16 -15 0 -8 8 -15 19 -15 12 0 20 -9
23 -25 l5 -25 -1763 2 c-969 2 -1766 6 -1770 11 -4 4 -10 48 -12 96 -3 71 -7
88 -18 84 -11 -4 -14 7 -14 48 0 68 -9 99 -26 99 -10 0 -14 15 -14 55 0 42 -3
55 -15 55 -8 0 -16 5 -16 10 -1 6 -3 15 -4 20 -1 6 -3 19 -4 30 0 11 -8 20
-16 20 -13 0 -20 23 -16 56 1 7 -8 14 -19 17 -15 4 -20 13 -20 41 0 29 -4 36
-20 36 -13 0 -20 7 -20 20 0 11 -7 20 -15 20 -8 0 -17 14 -21 35 -3 19 -12 35
-19 35 -7 0 -15 9 -18 20 -3 11 -12 20 -21 20 -9 0 -16 7 -16 15 0 8 -7 15
-16 15 -9 0 -18 9 -21 20 -3 11 -12 20 -19 20 -8 0 -14 9 -14 20 0 13 -7 20
-20 20 -13 0 -20 7 -20 20 0 13 -7 20 -20 20 -11 0 -20 7 -20 15 0 8 -9 15
-20 15 -13 0 -20 7 -20 20 0 16 -7 20 -35 20 -28 0 -35 4 -35 20 0 16 -7 20
-35 20 -37 0 -50 25 -17 33 9 3 954 5 2100 6 2076 1 2082 1 2082 -19z m794
-26 c14 -3 26 -12 26 -20 0 -8 9 -14 20 -14 13 0 20 -7 20 -20 0 -11 7 -20 15
-20 8 0 17 -14 21 -35 3 -20 12 -35 20 -35 9 0 14 -12 14 -34 0 -25 5 -35 20
-39 15 -4 20 -14 20 -40 0 -20 5 -37 11 -39 12 -4 28 -69 29 -117 0 -25 4 -32
15 -27 12 4 15 -4 15 -43 0 -68 10 -111 26 -111 11 0 14 -28 14 -144 0 -135
-1 -144 -20 -149 -15 -4 -20 -14 -20 -41 0 -34 -1 -36 -35 -36 -28 0 -35 -4
-35 -20 0 -17 -7 -20 -40 -20 -29 0 -40 -4 -40 -15 0 -13 -25 -15 -164 -15
-136 0 -165 3 -170 15 -3 9 -18 15 -37 15 -22 0 -32 5 -36 20 -3 11 -12 20
-19 20 -8 0 -14 9 -14 20 0 13 -7 20 -20 20 -16 0 -20 7 -20 35 0 23 -5 35
-14 35 -14 0 -32 65 -29 100 1 11 -2 11 -12 -3 -11 -16 -14 -9 -20 53 -5 50
-11 70 -21 70 -10 0 -14 15 -14 60 0 49 -3 60 -16 60 -13 0 -14 3 -5 14 9 10
8 15 -4 20 -12 4 -15 22 -15 81 0 55 -3 74 -12 73 -10 -2 -14 22 -16 91 -2 77
0 93 11 88 11 -4 16 5 21 33 5 33 11 39 36 45 16 4 30 13 30 21 0 10 12 14 40
14 33 0 40 3 40 19 0 18 10 19 179 21 99 0 191 -2 205 -6z m-5334 -499 c0 -11
12 -15 44 -15 67 0 105 -10 99 -26 -4 -11 5 -14 36 -14 34 0 41 -3 41 -20 0
-17 7 -20 40 -20 33 0 40 -3 40 -20 0 -13 7 -20 20 -20 13 0 18 -5 14 -15 -4
-10 0 -15 15 -15 14 0 21 -6 21 -20 0 -13 7 -20 20 -20 13 0 20 -7 20 -20 0
-13 7 -20 20 -20 13 0 20 -7 20 -20 0 -11 5 -19 12 -18 7 2 17 -14 22 -34 5
-21 15 -38 23 -38 7 0 13 -9 13 -19 0 -30 11 -51 26 -51 10 0 14 -12 14 -40 0
-28 4 -40 14 -40 16 0 31 -53 21 -70 -7 -11 -619 -15 -674 -4 l-31 7 0 98 c0
87 -3 101 -20 116 -18 15 -20 30 -20 121 0 85 -3 103 -14 99 -11 -4 -15 6 -18
41 -1 26 -2 62 0 80 l3 32 90 0 c72 0 89 -3 89 -15z m-450 -36 c0 -4 -6 -10
-12 -12 -7 -3 2 -6 20 -6 l32 -1 0 -75 c0 -65 2 -75 18 -75 13 0 14 -2 4 -9
-11 -7 -11 -9 2 -14 13 -5 16 -24 16 -102 0 -78 3 -95 15 -95 11 0 15 -12 16
-42 1 -24 2 -59 3 -78 l1 -35 -297 -3 -298 -2 0 60 c0 46 3 60 15 60 9 0 16
14 20 38 9 54 14 64 25 57 5 -3 11 -1 11 4 1 6 3 16 4 21 1 6 3 15 4 20 0 6 8
10 16 10 13 0 21 31 16 63 0 4 8 7 19 7 13 0 20 7 20 20 0 13 7 20 20 20 11 0
20 7 20 15 0 8 14 17 35 21 21 4 35 12 35 21 0 8 9 17 20 20 11 3 20 12 20 19
0 9 12 14 35 14 28 0 35 4 35 20 0 17 7 20 40 20 27 0 40 4 40 13 0 8 7 14 15
14 8 0 15 -4 15 -8z m-815 -729 c4 -25 12 -40 21 -40 12 0 21 -49 15 -83 -1
-5 8 -11 19 -14 16 -4 20 -14 20 -44 0 -32 3 -39 20 -39 13 0 20 -7 20 -20 0
-11 6 -20 14 -20 7 0 16 -9 19 -20 3 -11 12 -20 21 -20 14 0 20 -18 19 -57 -1
-8 12 -13 29 -13 16 0 27 -4 24 -9 -4 -5 7 -15 24 -23 16 -7 30 -19 30 -25 0
-7 9 -13 20 -13 13 0 20 -7 20 -20 0 -17 7 -20 39 -20 30 0 40 -4 44 -20 4
-15 14 -20 41 -20 26 0 34 -4 30 -14 -6 -16 35 -26 113 -26 48 0 54 -2 43 -15
-9 -11 -9 -15 -1 -15 6 0 14 6 17 14 3 7 23 16 45 20 37 6 39 8 39 41 0 25 -4
35 -16 35 -9 0 -18 9 -21 19 -3 11 -14 22 -25 24 -11 3 -17 10 -13 16 3 7 -3
11 -15 11 -13 0 -24 8 -27 20 -4 15 -14 20 -39 20 -27 0 -34 4 -34 20 0 13 -7
20 -20 20 -11 0 -20 7 -20 15 0 8 -7 15 -15 15 -8 0 -15 9 -15 20 0 13 -7 20
-20 20 -13 0 -20 7 -20 20 0 11 -7 20 -15 20 -8 0 -15 7 -15 16 0 9 -9 18 -20
21 -15 4 -20 14 -20 38 0 19 -8 39 -20 50 -16 14 -20 31 -20 77 l0 58 315 0
315 0 0 -24 c0 -40 12 -86 22 -86 6 0 7 7 4 16 -3 8 -2 12 4 9 6 -3 10 -53 10
-111 0 -82 3 -104 14 -104 19 0 26 -32 26 -117 0 -52 3 -72 12 -70 9 1 16 -28
23 -96 6 -56 14 -95 19 -90 5 4 5 -2 1 -16 -5 -16 -4 -21 4 -17 8 5 11 -21 11
-87 0 -86 2 -95 20 -100 15 -4 20 -14 20 -41 0 -34 -1 -36 -35 -36 -23 0 -35
-5 -35 -13 0 -11 -30 -16 -126 -21 -168 -9 -364 2 -364 21 0 9 -18 13 -67 14
-38 1 -71 1 -75 0 -5 0 -8 8 -8 19 0 18 -7 20 -55 20 -41 0 -55 4 -55 15 0 8
-14 17 -35 21 -19 3 -39 13 -43 21 -5 8 -23 15 -40 15 -24 1 -32 6 -32 20 0
14 -8 18 -35 18 -28 0 -35 4 -35 20 0 16 -7 20 -34 20 -25 0 -35 5 -39 20 -3
12 -14 20 -26 20 -12 0 -21 6 -21 14 0 7 -10 16 -21 19 -15 4 -20 11 -16 21 5
13 -1 16 -28 16 -28 0 -35 4 -35 20 0 13 -7 20 -20 20 -11 0 -20 7 -20 15 0 8
-9 15 -20 15 -13 0 -20 7 -20 20 0 13 -7 20 -20 20 -13 0 -20 7 -20 20 0 11
-6 20 -14 20 -7 0 -16 9 -19 20 -3 11 -12 20 -21 20 -12 0 -16 10 -16 35 0 28
-4 35 -20 35 -15 0 -20 7 -20 26 0 17 -4 23 -12 18 -8 -5 -7 0 2 11 14 17 13
18 -2 13 -18 -7 -28 9 -28 48 0 17 -4 22 -15 18 -11 -4 -15 1 -15 17 0 39 -11
69 -26 69 -9 0 -14 18 -16 58 -2 43 -7 57 -18 57 -10 0 -16 12 -18 38 l-3 37
240 0 239 0 7 -40z m1865 -94 c0 -150 -6 -196 -26 -196 -10 0 -14 -15 -14 -56
0 -47 -3 -57 -20 -61 -15 -4 -20 -14 -20 -39 0 -23 -5 -34 -14 -34 -9 0 -17
-15 -21 -40 -4 -23 -12 -40 -20 -40 -7 0 -16 -14 -20 -31 -4 -17 -13 -33 -21
-36 -8 -3 -14 -14 -14 -24 0 -12 -7 -19 -20 -19 -13 0 -20 -7 -20 -20 0 -14
-6 -20 -17 -18 -12 2 -18 -3 -17 -14 1 -11 -5 -18 -17 -18 -12 0 -19 -7 -19
-20 0 -12 -7 -20 -16 -20 -9 0 -23 -8 -30 -17 -13 -17 -14 -17 -9 2 5 16 3 16
-6 -2 -7 -13 -20 -23 -31 -23 -10 0 -18 -7 -18 -15 0 -11 -13 -15 -54 -15
l-54 0 -7 95 c-6 71 -11 95 -21 95 -11 0 -14 21 -16 93 -2 124 -1 122 -21 121
-15 -2 -17 10 -17 107 0 88 -3 110 -16 117 -12 7 -17 32 -21 110 -3 56 -10 99
-14 96 -10 -6 -12 39 -2 49 3 4 152 7 330 7 l323 0 0 -134z"/>
<path d="M7832 2158 l3 -73 73 -3 72 -3 0 76 0 75 -75 0 -76 0 3 -72z"/>
<path d="M7840 1660 l0 -320 70 0 70 0 0 320 0 320 -70 0 -70 0 0 -320z"/>
</g>
</svg>
