<svg id="svg" version="1.1" viewBox="0 -85 300 300" width="300" height="300" xmlns="http://www.w3.org/2000/svg"><svg xmlns="http://www.w3.org/2000/svg"><defs><clipPath id="clip-1"><rect x="0" y="0" width="2048" height="2048" fill="none"/></clipPath></defs><g clip-path="url(#clip-1)" fill="none" fill-rule="nonzero" stroke="none" stroke-width="1" stroke-linecap="butt" stroke-linejoin="miter" stroke-miterlimit="10" stroke-dasharray="" stroke-dashoffset="0" font-family="none" font-weight="none" font-size="none" text-anchor="none" style="mix-blend-mode: normal"><path d="M128.87783,99.18164c-0.25342,-2.09473 -0.5647,-9.22383 0.49321,-10.7606c1.48301,-0.57847 8.198,-0.39126 10.04883,-0.39448l14.11187,0.02534c4.87939,0.03384 9.79834,-0.03926 14.68213,0.01421c0.66357,0.00718 1.7915,0.17812 2.42285,0.39844c0.20654,0.07222 0.31055,0.42642 0.39844,0.65713c0.54053,1.40317 -0.05273,9.16948 0.33691,10.05938c2.27197,0.14517 11.2998,-0.55942 12.40283,0.45146c0.35596,0.32622 0.4248,0.81343 0.39258,1.26885c-0.12744,1.76528 -1.98779,5.17134 -2.77588,6.93589c2.30859,-0.13975 14.23096,-0.57671 15.375,0.2436c0.36035,0.25928 0.47021,0.77871 0.479,1.19707c0.05566,2.66719 -6.35742,14.25732 -5.7334,15.25737c1.09717,0.16421 2.25293,-0.03413 3.4292,-0.01611c4.1001,0.0627 8.23828,-0.20742 12.33691,0.01875c4.25098,0.23467 0.29004,5.55513 -0.20361,7.52622c-0.14355,0.57363 -0.84229,1.77187 -1.00635,2.41304c-0.83643,2.74614 -2.28223,5.33086 -3.22852,8.02075c9.80566,4.16953 17.8125,9.38145 25.16162,17.20371c1.1792,1.25537 2.5415,2.65283 3.56543,4.01074c5.19141,6.28418 9.24609,13.42529 11.98096,21.104c0.4541,1.25537 1.31543,3.67383 1.46924,4.90137c1.43408,2.48438 2.88867,15.65186 2.65137,18.83789c4.33154,0.18457 37.53223,-0.39404 38.80371,0.19482c0.51855,0.23877 0.94482,0.65625 1.09863,1.21875c0.11719,0.42773 0.06592,0.81885 -0.19482,1.18213c-0.25928,0.35742 -0.58008,0.51855 -1.00195,0.60352c-1.88525,0.37793 -4.08398,0.15674 -6.01025,0.15234l-10.28613,-0.01611l-41.93848,0.00586l-161.04009,0.00293l-35.97847,-0.00146l-11.60347,-0.00732c-1.2104,0 -6.09243,0.25928 -6.61201,-0.40576c-2.79529,-3.58447 4.725,-2.9751 6.03545,-2.96924l8.08682,0.03516l25.31704,-0.00146c-0.56865,-12.69287 4.42441,-26.99268 10.94854,-37.75781c2.22964,-4.09277 6.3271,-8.96777 9.65669,-12.26367c1.20937,-1.19824 2.58047,-2.37012 3.71133,-3.61377l0.12144,-0.13477c1.56753,-1.11182 2.93789,-2.34961 4.4606,-3.44092c4.45928,-3.19629 10.7751,-7.03037 16.01851,-8.8251c-1.92627,-3.64453 -3.32329,-7.81465 -4.829,-11.65854c-0.4916,-1.25493 -1.17187,-2.47104 -1.57251,-3.75542c-0.12231,-0.39185 -0.22998,-0.76978 -0.11719,-1.17832c0.13755,-0.49863 0.49775,-0.98379 0.97573,-1.20132c1.30122,-0.59238 14.74541,-0.20332 17.129,-0.19087c-1.85669,-3.89209 -3.32139,-7.96509 -5.11333,-11.88794c-0.48018,-1.05103 -1.27544,-2.63833 -1.07681,-3.77725c0.77534,-1.2123 2.57271,-1.27852 3.87539,-1.22153c3.94233,0.17227 8.21104,-0.17959 12.11821,0.16333c-0.9438,-2.002 -3.35068,-5.96865 -2.68843,-8.02837c0.82676,-0.87407 4.6207,-0.64849 5.88882,-0.61963c2.27036,0.05156 4.78594,-0.12056 7.02642,0.02373zM232.45459,208.59082c2.73193,-0.08643 7.88525,-0.18457 10.50732,0.00732c-0.3252,-8.33496 -1.20703,-14.56348 -4.03711,-22.53369c-1.00928,-2.30859 -1.8501,-4.47949 -2.97363,-6.75732c-3.88037,-7.87354 -8.51514,-13.70508 -14.78906,-19.72266c-4.7417,-4.12646 -8.30127,-6.82764 -13.94824,-9.83643c-1.67725,-0.89355 -4.87354,-2.21045 -6.11426,-2.93701c-0.49805,1.27002 -3.8584,9.24023 -3.78955,10.01221c1.14111,0.74414 2.76416,1.38281 4.03418,1.98486c15.41162,7.30225 26.68213,21.86426 30.01025,38.57959c0.7207,3.62695 1.22754,7.50146 1.1001,11.20313zM81.62461,157.19238c-3.77476,3.18604 -7.04092,6.48047 -10.14463,10.34326c-1.33623,1.6626 -2.52876,3.66211 -3.796,5.20898c-5.99443,9.55371 -9.5373,19.81787 -10.40508,31.08984c-0.1166,1.51611 -0.09683,3.05859 -0.30864,4.56299l-0.02856,0.19482c3.49409,-0.10986 7.09761,-0.0498 10.60532,-0.06885c-0.22764,-7.04004 1.7584,-15.87158 4.62627,-22.31104c6.25474,-14.04346 16.57368,-23.73193 30.85444,-29.32324c-1.43101,-2.95459 -2.87051,-6.95068 -4.14771,-10.06201c-0.63721,0.33984 -1.34531,0.63867 -2.00552,0.9375c-5.46313,2.46826 -10.67271,5.54004 -15.2499,9.42773zM127.56035,208.57471l13.14595,-0.01758c0.99375,0.00146 6.06665,0.14795 6.52075,-0.1626c-1.43994,-4.91309 -2.76958,-10.50732 -4.07314,-15.50244l-7.43071,-28.35059c-1.05806,-4.03564 -2.24751,-9.19043 -3.43579,-13.11768c-3.58755,-0.02051 -7.1751,-0.00293 -10.76221,0.0498c-1.60811,-2.99414 -3.83789,-9.00732 -5.26523,-12.4021c-1.09541,-2.60552 -3.82588,-8.86875 -4.50645,-11.2585c-2.75537,0.27188 -6.75835,0.14224 -9.61274,0.14927c-1.83545,0.00454 -5.47998,0.06357 -7.19912,-0.09902l19.96274,49.27881l7.3311,18.20068c1.74302,4.37842 3.46846,8.90918 5.32485,13.23193zM167.66162,151.39307c-0.89209,4.18799 -2.16943,8.35107 -3.21387,12.5083c-0.25635,1.01807 -0.57715,2.00537 -0.72803,3.04688c-1.22754,4.41211 -2.26172,8.94287 -3.48193,13.36084c-0.37061,1.34033 -1.10449,4.58203 -1.56592,5.66748c-1.35205,5.81104 -3.13184,11.62061 -4.55273,17.42432c-0.41162,1.68457 -0.90674,3.63428 -1.47363,5.25586c2.91357,-0.18164 6.16846,-0.12598 9.10693,-0.12451c3.57275,-0.01904 7.14404,0.00439 10.71533,0.06885l21.97559,-54.49365l6.95361,-17.23594c0.90674,-2.24443 2.68359,-7.01338 3.76758,-8.98271c-2.8667,0.1541 -6.479,0.01201 -9.3999,0.07646c-1.604,0.03545 -5.93701,0.08716 -7.36084,-0.16187c-0.63281,1.21406 -1.84424,4.46968 -2.41553,5.86538l-4.70361,11.43428c-0.58594,1.44873 -1.87939,4.99365 -2.71582,6.04395c-1.2085,0.48047 -9.21826,0.28564 -10.90723,0.24609zM119.99194,102.40957l10.66494,24.55781c1.98662,4.52563 4.35923,9.71924 6.1604,14.28662c2.17866,-0.02915 5.05034,0.05361 7.13994,-0.10942c-0.44971,-1.47832 -0.63501,-3.45996 -0.84917,-5.03672l-1.04912,-7.66553l-1.86313,-13.44946c-0.33223,-2.37627 -1.3771,-7.9396 -0.99097,-10.01689c0.27363,-0.25371 1.08838,-0.38042 1.38589,-0.34277c2.69868,0.34146 18.82676,-0.49424 20.1041,0.28447c0.6416,1.09219 -0.06738,4.38501 -0.30029,5.68125c-0.50244,5.49053 -1.74316,12.14443 -2.41553,17.72241c-0.35742,2.95942 -1.28906,10.43906 -1.94092,12.92988c1.86328,-0.03208 5.32324,-0.16685 7.08252,0.08408c3.92139,-8.7835 7.76221,-17.93789 11.6001,-26.78833l3.36621,-7.76265c0.57422,-1.31382 1.32715,-3.17109 1.98779,-4.36831c-1.47803,0.15483 -10.89404,0.44033 -11.84619,-0.35332c-0.77637,-0.64702 -0.56543,-9.27173 -0.40576,-10.64165c-11.85352,0.18164 -23.71025,0.17607 -35.5645,-0.01699c-0.02769,2.1709 0.28271,8.86099 -0.44604,10.6125c-0.32358,0.77783 -10.62173,0.57993 -11.82026,0.39302zM156.61963,185.32764c1.63184,-6.34424 3.29736,-12.68115 4.99658,-19.00781c1.52344,-5.28516 2.77002,-10.68018 4.22168,-15.97852c0.55225,-2.01562 1.29199,-5.31885 1.96143,-7.18989c-2.03174,0.17754 -5.15771,0.08979 -7.26709,0.08936l-12.51562,-0.00205l-10.10244,0.00864c-1.6144,0 -4.26812,0.07354 -5.75156,-0.13125c1.4748,4.22813 3.04102,11.28428 4.24995,15.83848l9.16436,34.99072c0.71631,2.66748 1.41577,5.33936 2.09692,8.01416c0.33984,1.35938 1.24805,6.25342 2.40088,6.8042c0.80566,-0.31934 1.82666,-5.20312 2.09473,-6.23145l3.12598,-11.95459c0.30615,-1.17773 0.97705,-4.24219 1.32422,-5.25zM191.94873,169.26709c1.76074,0.54492 4.3667,1.92041 5.92383,2.86523c6.8335,4.08838 12.40137,9.98877 16.08398,17.04785c3.05859,5.79199 4.9834,12.81885 4.89697,19.38281c2.42725,-0.02783 4.85449,-0.03369 7.28174,-0.01465c1.48828,-0.01025 2.97656,-0.00439 4.46338,0.01465c-0.31348,-3.91113 -0.55518,-7.2876 -1.3623,-11.12549c-2.46094,-11.47852 -8.63525,-21.82617 -17.56934,-29.44189c-4.90869,-4.16748 -9.50244,-6.75879 -15.38672,-9.24023c-1.25977,3.02197 -2.89893,7.74902 -4.33154,10.51172zM108.80771,172.55127c-10.53457,5.02881 -17.73428,12.09229 -21.92827,23.26758c-1.83999,4.90283 -1.85186,7.88525 -2.4479,12.81006c1.17671,-0.03662 2.79404,-0.13916 3.93501,-0.11426c1.73643,0.00732 3.47271,0.03076 5.20854,0.06738c0.75308,-12.31494 7.2293,-23.20312 19.03579,-27.78809c-1.2501,-2.58838 -2.11831,-5.55762 -3.41836,-8.12549c-0.01816,-0.03516 -0.31143,-0.11279 -0.38481,-0.11719zM69.36313,208.57324c1.26372,-0.00586 3.01465,-0.09814 4.21011,-0.04541c2.30786,0.00732 5.3376,-0.07178 7.59302,0.0498c-0.04116,-1.34033 -0.01523,-2.45654 0.12495,-3.79102c1.61763,-15.40869 11.95005,-30.14062 26.72476,-35.66455c-0.92329,-1.70947 -3.85269,-9.78076 -4.47275,-10.3374c-2.57095,1.33008 -4.62012,1.99219 -7.26606,3.57129c-11.521,6.7207 -20.14204,17.47266 -24.19687,30.17871c-0.99038,3.11572 -1.696,6.34277 -2.09312,9.5918c-0.25737,2.10498 -0.30645,4.36816 -0.62402,6.44678zM194.96338,208.57617c2.01563,-0.04248 4.03271,-0.0542 6.0498,-0.03662c1.07666,0.02197 2.28223,0.01904 3.34717,0.08057c-0.81006,-10.62891 -5.35107,-19.04004 -14.82715,-24.46582c-0.93896,-0.53906 -2.08154,-1.00928 -2.96924,-1.59814c-0.53467,1.83838 -2.63379,6.99756 -3.51416,8.89014c6.76758,2.78906 12.0835,9.63721 11.91357,17.12988zM181.09131,208.56592l2.17529,0.01758c-1.12646,-3.24756 -1.54541,-4.33447 -4.59961,-6.22559c-0.78076,2.11816 -1.71533,4.19678 -2.53711,6.2959c1.65234,-0.06445 3.30762,-0.09521 4.96143,-0.08789zM95.56919,208.604l3.78369,-0.08643c1.90986,0.02051 3.81987,0.03076 5.72974,0.03076c0.05654,-4.76953 1.95381,-9.33252 5.29526,-12.73682c1.66099,-1.66113 4.18696,-3.58447 6.39199,-4.4502c-0.69595,-2.09473 -2.41934,-6.30469 -3.36548,-8.44189l-0.24741,-0.09229c-1.53047,0.86719 -2.72241,1.30518 -4.3147,2.33789c-5.89365,3.75146 -10.18872,9.55371 -12.05654,16.28613c-0.86499,3.16406 -0.68569,4.57178 -1.21655,7.15283zM179.3877,200.4917c3.6416,1.73877 5.146,4.21875 5.82129,8.11963c1.71387,-0.03955 3.43359,-0.09375 5.14746,-0.06738c0.90088,0.00586 1.81787,0.00146 2.71582,0.02051c-0.40576,-2.28516 -0.74561,-4.35352 -1.72412,-6.48779c-1.73877,-3.78809 -5.06104,-7.27588 -8.99854,-8.80957c-0.96533,2.38477 -1.93359,4.87646 -2.96191,7.22461zM215.48584,208.59961c-0.18164,-2.8125 -0.2959,-4.68604 -0.87305,-7.47363c-1.77393,-8.41406 -6.20068,-16.03564 -12.62842,-21.74707c-3.54199,-3.13916 -6.87598,-5.09033 -11.16064,-7.05322c-1.27441,2.74805 -2.21191,5.80078 -3.55371,8.56934c2.32178,0.646 5.44629,2.69678 7.37549,4.14844c6.98291,5.25439 11.83301,14.70703 11.74219,23.54297c1.91895,-0.05273 3.83936,-0.06738 5.7583,-0.04541c1.04736,0.01172 2.31299,-0.00439 3.33984,0.05859zM121.08794,202.41504c-3.31509,2.52246 -2.97085,2.70117 -4.40024,6.21094l3.31963,-0.06006c1.27178,0.01172 2.62998,-0.00146 3.8937,0.04541c-0.43828,-1.01807 -2.27168,-5.81982 -2.81309,-6.19629zM117.41895,193.38574c-4.65146,2.3291 -7.55933,5.18848 -9.39067,10.23926c-0.59648,1.64502 -0.73652,3.38379 -1.20835,4.99072l3.66592,-0.08936c1.42163,0.01318 3.02739,-0.00879 4.43218,0.08496c0.33838,-3.90967 2.19111,-6.42773 5.71685,-8.09766c-0.45923,-1.03125 -2.65664,-6.90967 -3.21592,-7.12793zM141.2521,106.70347c-0.13301,0.84126 1.01426,8.05928 1.19546,9.47651c1.06304,8.31724 2.48203,16.74185 3.40049,25.07139c2.78672,-0.05288 5.57285,-0.06519 8.36045,-0.03691c0.09229,-1.35146 0.22266,-3.03838 0.53906,-4.36055c0.94775,-8.60479 2.47266,-17.25088 3.54199,-25.8479c0.17432,-1.39995 0.36328,-2.85923 0.60352,-4.24834c-5.20752,-0.00352 -12.59663,0.22383 -17.64097,-0.0542zM106.82373,111.04863c1.55317,3.42056 2.87373,6.99639 4.40581,10.43057c4.10361,9.19805 7.59771,18.70459 11.59512,27.93926c2.54971,-0.00879 6.53936,-0.10547 9.03457,0.05566l-0.82646,-2.73193c-0.81665,-3.72861 -2.82671,-5.71655 2.25132,-5.52642c-1.43115,-2.34565 -3.01948,-6.55737 -4.2271,-9.19102c-3.1396,-6.84785 -5.948,-14.18159 -9.07939,-21.00439c-2.24341,0.16934 -5.17983,0.03208 -7.49253,0.05596c-1.25977,0.01289 -4.56021,0.09946 -5.66133,-0.02769zM180.05566,111.07734c-0.7793,1.28394 -2.25586,5.16431 -2.96338,6.78706l-6.56982,15.104c-0.96387,2.21074 -2.62354,6.2959 -3.76318,8.3231c1.12793,-0.07339 2.11084,-0.25737 3.10986,0.254c0.59033,0.83218 -1.32275,6.73916 -1.73291,7.93887c1.47803,-0.07617 8.31445,0.03662 9.06006,-0.19189l0.26953,-0.35156c3.76025,-9.37383 7.59961,-18.71646 11.5166,-28.02656c0.6416,-1.52666 3.66357,-8.96074 4.30811,-9.89165c-3.79102,0.24141 -9.25049,0.03413 -13.23486,0.05464z" fill="#bc9962"/><path d="M221.16211,159.58447c2.7334,-0.2373 8.04199,4.78564 10.40479,4.12793c5.19141,6.28418 9.24609,13.42529 11.98096,21.104c0.4541,1.25537 1.31543,3.67383 1.46924,4.90137l-0.22412,0.08936c-1.45459,-0.09082 -3.89795,-3.9082 -5.86816,-3.74268c-1.00928,-2.30859 -1.8501,-4.47949 -2.97363,-6.75732c-3.88037,-7.87354 -8.51514,-13.70508 -14.78906,-19.72266z" fill="#d4b66c"/><path d="M76.78242,154.77979c0.87056,0.22705 4.17773,1.76367 4.84219,2.4126c-3.77476,3.18604 -7.04092,6.48047 -10.14463,10.34326c-1.33623,1.6626 -2.52876,3.66211 -3.796,5.20898c-1.13877,-0.3208 -3.45249,-1.27441 -4.39102,-1.95264c2.22964,-4.09277 6.3271,-8.96777 9.65669,-12.26367c1.20937,-1.19824 2.58047,-2.37012 3.71133,-3.61377z" fill="#d4b66c"/><path d="M137.15376,146.29263c2.24106,0.2269 6.01216,0.11426 8.43428,0.11294l17.47837,-0.0498c-0.54492,1.64766 -0.96387,3.71748 -1.37549,5.44307l-2.04199,8.44629c-0.24023,0.99316 -0.60791,2.79932 -0.90088,3.70459l-3.32373,13.72412c-0.26953,1.09424 -1.21582,5.25586 -1.57031,6.1333c-2.21631,-0.78809 -7.80103,-5.22803 -9.09888,-5.41553c-2.28867,-9.2915 -4.51729,-18.59619 -6.6854,-27.91699c-0.33311,-1.38721 -0.63853,-2.78174 -0.91597,-4.18198z" fill="#d4b66c"/><path d="M137.15376,146.29263c2.24106,0.2269 6.01216,0.11426 8.43428,0.11294l17.47837,-0.0498c-0.54492,1.64766 -0.96387,3.71748 -1.37549,5.44307l-2.04199,8.44629c-0.24023,0.99316 -0.60791,2.79932 -0.90088,3.70459c-0.49951,-0.23877 -3.54199,-2.47412 -4.19678,-2.93262c-3.32227,-2.37012 -6.67676,-4.69482 -10.06084,-6.97412c-1.12046,-0.75732 -5.32896,-3.90527 -6.4207,-3.56836c-0.33311,-1.38721 -0.63853,-2.78174 -0.91597,-4.18198z" fill="#bc9962"/><path d="M144.75513,178.3916c1.29785,0.1875 6.88257,4.62744 9.09888,5.41553c-0.25488,1.30078 -3.63428,14.91797 -3.80273,15.20068l-0.28857,0.04834c-0.41895,-1.19824 -0.98145,-4.13818 -1.33887,-5.51807c-1.29053,-4.97314 -2.31138,-10.20117 -3.6687,-15.14648z" fill="#bc9962"/><path d="M161.01416,161.06689c0.09668,0.18311 0.20508,0.33105 0.32227,0.50391c0.01318,0.36182 -0.33691,0.97559 -0.4292,1.53955l-0.02344,0.1582l-0.08789,0.14063c-0.17725,-0.48779 0.11426,-1.77246 0.21826,-2.34229z" fill-opacity="0.01176" fill="#000000"/><path d="M140.72227,168.34424l0.45806,0.04688c-0.01611,0.67383 -0.08423,1.02393 -0.04687,1.76221l-0.1043,0.07031c-0.20713,-0.21533 -0.23555,-1.38574 -0.30688,-1.87939z" fill-opacity="0.02353" fill="#000000"/><path d="M161.56934,158.69678c0.49219,0.88037 0.16113,1.03711 -0.13477,1.95557l-0.05273,0.06445c-0.11719,-0.19189 0.14502,-1.4502 0.17725,-1.88232z" fill-opacity="0.01961" fill="#000000"/><path d="M161.61621,166.31982c0.75293,0.10693 1.72266,0.66504 2.10352,0.62842c-1.22754,4.41211 -2.26172,8.94287 -3.48193,13.36084c-0.37061,1.34033 -1.10449,4.58203 -1.56592,5.66748l-0.36621,0.44971c-0.70898,-0.12891 -1.3418,-0.42187 -1.68604,-1.09863c1.63184,-6.34424 3.29736,-12.68115 4.99658,-19.00781z" fill="#d4b66c"/></g></svg></svg>